<?xml version="1.0" encoding="UTF-8" standalone="no"?><!-- Generator: Gravit.io --><svg xmlns="http://www.w3.org/2000/svg" xmlns:xlink="http://www.w3.org/1999/xlink" style="isolation:isolate" viewBox="0 0 900 900" width="900pt" height="900pt"><defs><clipPath id="_clipPath_VMmRFvOBCFx06E8rB7aAF3MJoyJwxlg8"><rect width="900" height="900"/></clipPath></defs><g clip-path="url(#_clipPath_VMmRFvOBCFx06E8rB7aAF3MJoyJwxlg8)"><path d=" M 469.624 25.29 C 469.324 25.539 463.724 26.037 457.224 26.534 C 434.624 27.944 425.324 29.602 410.324 34.743 C 393.824 40.464 382.924 45.605 371.324 53.234 C 364.924 57.463 356.024 62.935 351.624 65.506 C 340.324 72.056 332.724 77.778 327.424 83.831 C 324.924 86.733 321.424 90.713 319.624 92.786 C 299.624 115.505 288.624 136.815 281.924 165.754 C 276.224 190.049 275.524 226.45 280.324 247.428 C 281.124 251.077 281.824 256.3 281.824 259.037 C 281.924 265.173 283.824 272.221 286.924 277.279 C 289.924 282.254 298.624 288.887 306.824 292.536 C 313.024 295.272 313.824 295.438 323.324 295.438 C 330.224 295.438 334.824 295.023 338.224 294.028 C 340.924 293.199 343.324 292.702 343.524 292.95 C 344.824 293.945 348.724 304.808 348.324 305.803 C 347.724 306.963 342.724 306.798 328.324 305.056 C 322.624 304.393 306.224 302.9 281.324 300.91 C 275.324 300.413 266.024 299.584 260.624 299.086 C 250.424 298.091 217.224 299.169 205.824 300.993 C 188.924 303.564 188.124 303.73 180.024 305.471 C 178.824 305.803 178.024 306.3 178.324 306.715 C 178.624 307.046 180.524 306.881 182.524 306.3 C 186.824 305.056 202.824 303.066 219.424 301.657 C 231.224 300.662 259.224 301.076 276.824 302.486 C 322.924 306.217 347.924 308.622 349.724 309.617 C 350.324 309.866 350.824 311.026 350.824 312.187 C 350.824 314.094 350.624 314.177 343.624 314.177 C 339.624 314.177 332.924 313.763 328.824 313.348 C 309.524 311.192 215.424 309.202 192.224 310.446 C 181.724 310.944 180.524 311.192 175.024 313.929 C 171.824 315.504 166.024 318.821 162.324 321.308 C 158.624 323.796 155.124 325.786 154.624 325.786 C 152.324 325.786 157.024 317.245 161.124 314.094 C 163.724 312.104 162.624 312.021 159.024 313.929 C 154.824 316.25 153.224 318.24 149.924 325.205 C 145.324 334.741 134.424 367.577 126.324 395.686 C 125.424 398.754 124.024 402.817 123.224 404.641 C 122.524 406.548 121.824 409.036 121.824 410.279 C 121.824 411.44 120.824 413.762 119.624 415.338 C 117.124 418.737 113.824 427.278 113.824 430.346 C 113.824 431.507 112.324 433.828 110.424 435.735 C 107.924 438.14 106.624 440.545 105.724 444.276 C 104.624 448.422 103.624 450.163 100.524 452.817 C 98.324 454.641 97.024 456.382 97.524 456.714 C 98.124 456.962 98.824 459.201 99.224 461.606 C 100.024 466.415 98.924 468.405 95.724 468.405 C 94.224 468.405 93.824 467.908 94.024 465.752 C 94.324 463.347 94.024 463.098 91.024 462.518 C 84.824 461.44 84.024 458.289 89.724 457.377 C 91.424 457.045 92.824 456.465 92.824 455.967 C 92.824 454.807 83.524 454.889 82.024 456.133 C 80.624 457.294 80.424 463.928 81.824 464.674 C 82.424 464.923 82.824 466.83 82.824 468.903 C 82.824 473.131 82.324 473.38 72.124 474.956 C 68.724 475.453 64.224 476.614 62.124 477.443 C 60.024 478.272 56.124 479.848 53.524 480.926 C 50.824 481.921 47.324 483.911 45.724 485.32 C 42.924 487.725 36.524 496.266 33.924 501.158 C 33.224 502.484 32.224 504.309 31.724 505.055 C 31.224 505.884 30.824 507.294 30.824 508.123 C 30.824 509.035 30.324 510.03 29.824 510.279 C 29.224 510.528 28.824 511.523 28.824 512.352 C 28.824 513.181 27.824 515.503 26.524 517.493 C 19.024 529.018 14.324 535.569 11.324 538.637 C 7.324 542.783 4.024 549.831 2.724 556.713 C 2.224 559.449 1.324 562.434 0.824 563.346 C 0.124 564.341 -0.076 571.141 0.024 580.262 L 0.324 595.519 L 2.524 591.87 C 3.724 589.88 6.124 587.061 7.824 585.568 C 10.824 582.915 13.524 577.691 15.624 570.146 C 17.124 565.336 17.124 564.341 15.824 565.005 C 15.224 565.336 14.824 564.424 14.824 563.015 C 14.824 561.605 15.124 560.444 15.624 560.444 C 18.024 560.444 20.624 552.318 21.124 543.446 C 21.324 539.715 26.424 532.252 33.324 525.536 C 36.524 522.385 37.824 520.395 38.324 517.493 C 39.424 511.274 42.924 500.577 45.124 497.012 C 47.924 492.286 58.224 483.745 64.224 481.175 C 70.124 478.521 80.324 477.36 109.324 475.785 C 131.224 474.624 180.924 475.37 191.324 477.029 C 202.924 478.853 206.524 480.594 222.824 492.037 C 243.224 506.299 250.824 513.347 249.224 516.332 C 248.824 517.161 248.624 518.571 248.724 519.566 C 248.824 520.644 248.524 521.473 247.924 521.473 C 247.324 521.473 246.824 522.136 246.824 522.882 C 246.724 524.541 243.524 528.106 242.024 528.106 C 241.524 528.106 240.524 527.609 239.924 526.945 C 239.324 526.282 236.724 525.536 234.224 525.204 C 230.324 524.789 229.724 524.458 230.024 522.882 C 230.324 521.224 229.924 521.058 226.324 521.141 C 214.824 521.473 212.724 521.722 211.924 522.965 C 211.224 523.96 210.524 524.043 207.524 523.214 C 205.524 522.634 203.824 521.804 203.624 521.39 C 203.224 520.478 188.424 520.312 168.324 521.058 C 159.424 521.39 154.624 521.141 149.824 520.229 C 130.424 516.332 126.024 516.249 120.324 519.317 C 114.624 522.385 118.624 528.106 126.624 528.106 C 129.224 528.106 133.124 528.521 135.324 528.935 C 137.524 529.35 143.824 529.93 149.324 530.179 C 178.424 531.506 210.224 534.657 216.524 536.813 C 220.724 538.305 225.124 545.353 227.324 554.225 C 228.724 559.864 228.724 561.688 227.724 566.663 C 227.024 569.814 225.924 573.214 225.224 574.126 C 224.524 575.038 223.724 577.111 223.324 578.686 C 222.724 581.423 220.724 585.983 218.924 588.636 C 218.224 589.631 216.524 589.797 211.224 589.549 C 207.424 589.383 203.324 588.968 202.124 588.554 C 200.324 588.056 199.824 588.139 199.824 589.051 C 199.824 589.797 198.824 590.295 197.224 590.295 C 195.824 590.295 194.924 589.963 195.324 589.466 C 195.624 588.968 195.624 588.636 195.124 588.636 C 194.724 588.636 187.824 588.222 179.824 587.807 C 169.124 587.227 165.224 587.31 164.624 587.973 C 164.124 588.719 163.324 588.719 161.624 588.056 C 160.324 587.559 154.824 586.895 149.324 586.646 C 143.824 586.398 131.724 585.817 122.324 585.32 C 105.424 584.408 105.324 584.408 103.624 586.149 C 99.724 590.212 102.624 593.777 111.024 595.187 C 118.424 596.348 136.124 598.421 150.024 599.747 C 167.624 601.489 180.024 606.132 182.724 612.102 C 185.224 617.492 184.724 628.603 181.824 634.656 C 181.424 635.568 180.524 637.392 179.924 638.636 C 179.324 639.88 178.824 641.621 178.824 642.533 C 178.824 645.85 168.024 650.908 157.624 652.483 C 147.124 654.142 94.224 652.566 83.924 650.41 C 78.124 649.167 75.624 649.664 73.924 652.318 C 72.524 654.473 73.824 655.634 79.924 657.541 C 86.524 659.697 103.424 663.263 106.824 663.263 C 110.324 663.263 122.924 667.409 123.524 668.735 C 124.124 669.979 126.024 670.394 125.624 669.15 C 125.424 668.735 125.724 668.321 126.224 668.321 C 126.824 668.238 127.824 670.145 128.524 672.467 C 129.724 676.447 129.724 677.276 127.724 682.251 C 125.624 687.475 120.524 696.264 117.424 699.913 C 115.324 702.4 102.224 709.531 97.924 710.526 C 91.524 712.019 81.024 711.438 60.624 708.453 C 56.824 707.956 57.124 708.868 61.324 711.189 L 64.824 713.014 L 271.124 713.014 C 457.024 713.014 477.824 712.848 480.724 711.687 C 483.124 710.692 486.024 710.443 493.824 710.775 C 499.324 710.941 504.424 711.604 505.224 712.102 C 506.224 712.765 543.624 712.931 646.324 712.848 L 786.124 712.599 L 788.824 703.478 C 793.724 686.812 801.524 668.818 807.724 660.029 C 809.424 657.707 810.824 655.551 810.824 655.303 C 810.824 655.054 812.424 652.815 814.324 650.328 C 816.224 647.84 817.824 645.601 817.824 645.352 C 817.824 645.104 819.224 643.197 820.824 641.124 C 822.524 639.134 823.824 637.144 823.824 636.646 C 823.824 636.231 824.324 635.9 824.824 635.9 C 826.224 635.9 826.024 636.729 823.824 639.631 C 821.124 643.362 814.024 655.303 811.724 660.112 C 810.624 662.434 808.924 665.916 807.924 667.74 C 804.124 674.623 797.624 692.118 794.124 704.307 C 793.424 707.044 792.524 710.112 792.124 711.189 L 791.624 713.014 L 816.624 713.014 L 841.524 713.014 L 851.924 708.868 C 857.624 706.546 863.024 704.39 863.824 703.976 C 867.924 702.151 878.924 697.176 883.824 694.938 C 886.824 693.611 891.724 691.455 894.524 690.128 L 899.824 687.724 L 899.824 621.638 C 899.824 578.023 899.424 554.806 898.824 553.313 C 898.024 551.738 898.024 550.826 898.824 550.162 C 900.624 548.67 900.024 545.519 897.924 545.519 C 896.024 545.519 894.824 544.026 894.824 541.539 C 894.824 540.544 895.524 540.793 897.324 542.617 L 899.724 545.104 L 899.824 542.119 C 899.824 540.378 898.624 537.31 896.724 534.408 C 894.124 530.345 893.524 528.355 892.724 520.975 C 892.124 514.259 891.424 511.523 889.624 509.035 C 879.724 495.271 879.624 494.939 878.724 488.14 C 878.224 484.491 877.324 480.76 876.724 479.765 C 873.324 474.624 858.824 467.327 850.024 466.332 C 842.824 465.503 840.524 464.508 836.224 460.362 C 829.424 453.646 829.724 454.392 829.424 440.793 C 829.224 428.356 826.824 403.397 824.824 392.95 C 820.524 370.645 812.024 345.603 803.824 331.093 C 794.724 314.841 779.124 300.993 766.324 297.677 C 756.424 295.189 724.024 295.189 693.324 297.594 C 677.424 298.92 674.024 299.418 676.424 300.081 C 677.424 300.413 684.424 300.164 691.824 299.584 C 699.224 298.92 716.124 298.174 729.424 297.925 C 763.424 297.179 769.024 298.34 782.324 309.119 C 788.824 314.426 797.024 324.045 800.524 330.512 C 808.624 345.769 820.724 384.575 815.824 379.931 C 815.424 379.6 814.124 377.029 812.824 374.293 C 804.124 355.885 779.424 322.386 764.224 308.373 L 760.624 305.056 L 734.924 305.056 C 706.724 305.056 669.624 307.046 624.324 310.861 C 597.824 313.182 583.824 312.851 579.624 310.031 C 577.824 308.871 577.624 308.373 578.624 307.295 C 579.324 306.632 580.024 303.398 580.224 300.081 C 580.424 296.847 581.024 293.779 581.624 293.282 C 582.224 292.784 585.924 291.209 589.924 289.634 L 597.224 286.897 L 610.324 287.395 C 631.224 288.141 635.024 286.566 635.624 276.864 L 636.024 271.143 L 644.724 265.753 C 649.424 262.768 660.124 254.891 668.524 248.092 C 682.824 236.483 683.724 235.571 685.324 230.928 C 687.224 225.455 687.924 208.042 686.524 201.16 C 685.724 197.511 685.324 197.014 682.024 195.853 C 678.924 194.775 677.424 194.775 672.824 195.521 C 662.624 197.346 662.324 197.263 662.024 193.531 C 661.524 186.318 655.924 158.125 653.324 149.585 C 644.224 119.817 622.224 88.889 591.624 62.852 C 569.524 44.113 544.724 33.085 515.324 28.939 C 502.924 27.198 497.424 26.368 493.024 25.622 C 488.524 24.71 470.524 24.461 469.624 25.29 Z  M 578.024 70.066 C 584.424 72.72 595.024 81.675 601.724 89.884 C 608.124 97.844 608.224 99.668 602.024 93.615 C 593.024 84.909 585.324 78.524 578.624 74.295 C 574.824 71.89 571.824 69.569 571.824 68.988 C 571.824 67.579 572.124 67.579 578.024 70.066 Z  M 431.524 73.217 C 435.324 77.612 440.024 80.597 445.424 81.841 C 453.124 83.665 453.524 83.499 454.324 77.529 C 455.024 71.559 456.824 69.403 459.324 71.476 C 460.124 72.139 461.324 72.886 462.024 73.134 C 463.024 73.383 462.824 73.881 461.524 75.207 C 459.424 77.114 460.424 78.026 464.724 78.192 C 468.624 78.275 467.724 79.602 461.924 82.587 C 459.024 83.997 456.724 85.489 456.624 85.904 C 456.424 87.23 462.024 88.806 468.624 89.386 C 474.824 89.884 475.324 90.05 475.024 91.791 C 474.824 93.615 475.124 93.698 480.024 93.449 C 485.324 93.2 485.324 93.2 485.424 95.688 C 485.624 104.477 486.524 104.726 493.124 97.346 C 495.924 94.195 498.724 91.957 499.724 91.957 C 500.724 91.957 503.224 91.045 505.224 89.884 C 509.724 87.396 510.824 87.313 510.824 89.552 C 510.824 90.464 512.224 93.781 513.824 96.932 C 515.524 100.083 516.824 103.731 516.824 105.141 C 516.824 108.54 518.624 108.457 522.824 104.809 C 524.724 103.234 526.724 101.907 527.324 101.907 C 528.024 101.907 530.524 103.151 532.924 104.726 C 539.924 109.121 551.224 113.847 553.224 113.267 C 554.724 112.769 554.924 112.106 554.324 109.369 C 553.924 107.545 553.824 106.053 554.024 106.053 C 554.824 106.053 569.924 118.656 570.724 119.983 C 571.124 120.729 571.624 131.094 571.724 142.951 C 571.824 154.809 571.924 165.09 572.024 165.754 C 572.324 168.988 571.724 172.387 570.824 172.387 C 570.324 172.387 569.824 171.641 569.824 170.729 C 569.824 169.817 569.524 169.153 569.124 169.236 C 568.624 169.236 567.624 169.153 566.824 168.822 C 564.424 168.158 555.724 165.92 551.124 164.925 C 548.724 164.427 546.224 163.432 545.624 162.686 C 541.424 158.125 531.424 150.911 526.224 148.756 C 520.524 146.351 519.924 146.268 506.324 146.268 C 498.624 146.351 489.224 146.848 485.324 147.429 C 479.224 148.424 477.724 149.087 473.224 152.653 C 467.824 156.882 462.524 164.593 459.224 173.051 C 457.824 176.782 457.724 178.192 458.724 181.84 C 459.324 184.162 460.024 189.883 460.224 194.526 L 460.524 202.901 L 465.224 208.208 C 471.824 215.919 477.524 229.435 474.824 230.845 C 474.324 231.093 471.924 230.43 469.324 229.435 L 464.724 227.611 L 459.524 229.186 C 456.624 230.015 451.824 231.01 448.824 231.259 C 443.624 231.757 443.424 231.84 445.824 232.752 C 448.324 233.747 448.224 233.747 445.324 233.249 C 443.724 232.918 438.424 232.586 433.724 232.503 C 429.024 232.42 424.524 232.088 423.924 231.757 C 423.224 231.342 421.824 231.757 420.724 232.586 C 418.824 233.995 418.824 233.913 418.824 229.767 C 418.824 225.04 418.124 224.543 415.224 227.196 C 412.624 229.601 412.724 237.561 415.424 241.044 C 418.024 244.36 423.824 248.34 424.624 247.262 C 425.524 246.267 433.824 246.931 433.824 248.009 C 433.824 248.423 431.924 248.506 429.224 248.174 C 425.524 247.76 424.624 247.843 425.024 248.755 C 425.324 249.418 426.424 249.833 427.424 249.75 C 428.424 249.667 428.724 249.75 428.124 249.999 C 426.324 250.662 426.524 251.989 428.324 251.989 C 429.124 251.989 429.824 252.735 429.824 253.564 C 429.824 254.476 430.324 255.471 430.824 255.72 C 432.724 256.715 431.724 258.871 426.124 265.919 C 422.924 269.899 419.724 274.211 419.024 275.62 C 418.324 276.947 417.424 278.274 417.024 278.523 C 415.024 279.6 411.824 284.41 410.724 287.726 C 409.524 291.541 410.324 306.217 411.724 305.471 C 412.124 305.305 413.024 301.905 413.724 298.008 C 414.424 294.111 415.424 290.712 415.924 290.463 C 416.424 290.214 416.824 289.053 416.824 287.809 C 416.824 286.566 418.224 283.581 419.824 281.093 C 421.524 278.605 422.824 276.118 422.824 275.455 C 422.824 274.874 423.324 274.377 423.824 274.377 C 425.624 274.377 434.824 265.421 434.824 263.763 C 434.824 263.266 436.424 261.856 438.324 260.612 C 441.224 258.788 442.424 258.539 445.424 258.954 C 447.324 259.286 449.524 259.203 450.124 258.788 C 450.824 258.373 452.624 257.793 454.124 257.461 C 456.124 257.047 456.824 256.549 456.424 255.72 C 455.224 253.15 459.924 254.476 461.624 257.13 C 464.924 262.271 470.724 266.251 479.724 269.567 C 483.324 270.894 487.724 272.552 489.324 273.299 C 493.824 275.206 498.524 280.844 499.324 285.156 C 499.724 287.146 500.324 289.385 500.724 290.131 C 501.524 291.375 502.424 296.599 503.424 306.3 C 504.124 311.856 505.824 313.763 507.124 310.197 C 508.124 307.212 505.924 288.639 504.224 285.819 C 503.424 284.576 502.824 282.668 502.824 281.508 C 502.824 280.347 502.324 279.186 501.824 278.937 C 501.224 278.605 501.024 278.108 501.324 277.693 C 502.324 276.367 495.924 271.309 490.424 269.07 C 483.424 266.251 475.724 261.69 470.224 257.13 C 465.324 253.067 465.324 252.652 471.324 247.345 C 473.224 245.687 474.724 243.697 474.624 242.951 C 474.424 242.039 475.224 241.541 477.124 241.375 C 478.924 241.209 480.224 240.463 480.824 239.136 C 481.324 238.058 482.224 236.981 482.724 236.649 C 483.324 236.4 483.824 233.581 483.824 230.513 C 483.824 225.455 483.324 224.211 478.424 216.085 C 475.424 211.193 472.824 205.969 472.524 204.477 C 472.324 203.067 471.124 199.75 469.924 197.263 C 468.324 193.946 467.924 191.79 468.424 189.137 C 468.724 187.23 469.424 185.654 469.824 185.654 C 470.224 185.654 470.824 184.825 471.124 183.747 C 472.424 179.352 475.124 174.377 477.924 171.475 C 479.524 169.817 480.824 167.993 480.824 167.495 C 480.824 166.334 484.524 166.251 485.324 167.412 C 485.624 167.827 486.824 168.241 487.924 168.241 C 490.724 168.241 490.224 170.48 486.824 173.382 C 485.124 174.709 484.024 176.202 484.324 176.616 C 485.024 177.445 489.224 175.455 492.124 172.968 C 493.424 171.973 495.124 171.558 497.524 171.724 C 500.924 171.973 501.224 172.221 502.324 175.953 C 503.624 180.347 507.124 183.996 510.024 183.996 C 513.224 183.996 517.424 181.757 520.824 178.192 C 525.424 173.382 528.824 173.548 532.824 178.772 C 537.424 184.908 537.124 185.405 528.124 186.069 C 520.124 186.732 503.124 185.986 501.324 184.991 C 499.524 183.83 492.724 182.172 492.124 182.669 C 491.324 183.332 491.424 183.332 497.324 185.654 C 505.724 188.805 513.124 189.8 531.924 190.215 C 547.524 190.463 549.824 190.381 549.824 189.303 C 549.824 188.308 550.724 188.059 553.324 188.225 C 555.824 188.473 557.124 188.059 558.224 186.898 C 559.424 185.488 559.824 185.488 561.224 186.4 C 562.624 187.395 563.324 187.395 565.324 186.483 C 566.724 185.903 567.824 185.074 567.824 184.659 C 567.824 183.415 570.524 183.996 572.324 185.654 C 573.824 186.981 574.124 188.556 574.024 193.366 C 573.924 196.599 573.424 200.414 573.024 201.823 C 572.524 203.15 572.324 205.72 572.624 207.462 C 572.824 209.12 572.524 211.608 572.024 212.851 C 571.424 214.095 570.724 218.656 570.424 222.967 C 570.124 227.279 569.324 232.337 568.724 234.161 C 568.124 235.986 567.824 239.385 568.224 241.873 C 568.624 244.858 568.424 246.931 567.424 248.506 C 566.624 249.75 565.824 253.73 565.524 257.295 C 565.224 262.602 564.724 264.012 563.224 264.675 C 559.124 266.582 551.824 273.05 549.724 276.533 C 547.224 280.844 547.524 285.073 550.624 291.043 C 553.224 296.101 557.324 298.423 563.224 298.423 C 568.424 298.423 568.624 298.837 566.624 304.559 C 565.624 307.461 564.224 309.202 558.924 314.592 C 557.424 316.084 550.424 320.977 547.824 322.386 C 546.424 323.05 545.124 323.879 544.824 324.128 C 543.924 324.957 537.324 326.781 534.124 327.195 C 529.324 327.776 526.424 326.947 524.824 324.542 C 524.124 323.381 523.024 322.552 522.524 322.718 C 521.024 323.133 516.724 333.166 514.724 341.126 C 512.324 350.661 511.224 353.066 506.124 360.197 C 494.524 376.283 483.624 381.009 460.324 380.346 C 451.824 380.097 447.524 379.6 445.824 378.688 C 444.424 377.941 442.024 377.112 440.424 376.863 C 436.824 376.117 421.124 369.733 417.024 367.328 C 415.324 366.416 413.824 365.587 413.624 365.587 C 413.324 365.587 408.624 361.855 403.024 357.378 C 397.424 352.817 392.824 349.335 392.824 349.666 C 392.824 350.33 390.424 347.013 388.924 344.194 C 388.324 343.199 387.424 342.37 386.824 342.37 C 386.324 342.37 385.824 341.789 385.824 341.126 C 385.824 340.462 384.224 338.472 382.324 336.814 C 378.224 333.166 377.924 333.912 381.324 339.716 C 382.724 342.121 383.824 344.525 383.824 345.106 C 383.824 345.686 384.224 346.515 384.624 346.93 C 385.124 347.428 386.224 349.335 387.124 351.159 C 388.024 353.066 390.124 356.383 391.724 358.621 C 393.424 360.777 394.824 363.348 394.824 364.26 C 394.824 365.752 394.524 365.67 391.824 363.514 C 388.824 361.109 387.924 360.114 379.524 349.418 C 371.024 338.472 356.924 312.436 350.224 295.106 C 348.724 291.209 346.224 284.907 344.724 281.01 C 341.324 272.552 340.224 268.821 337.724 255.72 C 336.124 247.097 335.824 241.126 335.824 210.944 C 335.824 174.709 336.124 171.392 340.924 145.853 C 342.624 137.147 343.624 134.245 347.324 128.026 C 352.324 119.651 358.924 113.267 361.024 115.008 C 363.224 116.832 365.624 116.086 367.924 112.852 C 369.124 111.194 371.424 108.623 372.924 107.297 C 374.424 105.887 377.124 102.321 378.824 99.336 C 381.324 94.942 383.024 93.2 387.124 90.796 C 394.324 86.733 400.324 81.675 403.324 77.529 C 405.524 74.461 406.524 73.881 410.924 73.051 C 413.724 72.471 417.624 72.056 419.724 72.056 C 421.724 72.056 424.324 71.476 425.424 70.813 C 428.124 69.154 428.124 69.154 431.524 73.217 Z  M 578.024 77.529 C 604.424 96.6 632.924 134.411 640.724 160.945 C 644.724 174.377 645.824 181.094 645.824 190.629 C 645.824 200.497 645.224 202.238 641.724 202.238 C 640.324 202.238 640.124 200.994 640.224 190.795 C 640.324 177.114 638.724 172.056 633.224 168.49 C 629.924 166.417 628.824 166.251 616.724 165.92 C 604.524 165.588 603.724 165.422 603.324 163.764 C 602.724 160.945 601.624 147.014 601.424 136.732 C 601.124 126.202 599.924 120.895 595.724 112.272 C 594.124 109.038 592.824 106.053 592.824 105.472 C 592.824 104.892 592.024 104.146 591.124 103.731 C 589.524 102.985 589.524 102.736 591.224 100.746 C 592.824 98.59 592.824 98.507 589.724 94.776 C 588.024 92.703 582.624 87.728 577.824 83.748 C 570.724 77.944 569.224 76.202 570.024 75.124 C 571.324 73.051 572.224 73.3 578.024 77.529 Z  M 310.724 112.769 C 304.924 125.29 297.424 143.366 293.224 154.809 C 292.424 156.965 290.624 154.809 291.424 152.57 C 291.724 151.409 292.024 149.004 291.924 147.346 C 291.824 145.688 292.224 144.112 292.824 143.781 C 293.324 143.532 293.824 142.454 293.824 141.459 C 293.824 138.805 299.024 127.28 303.324 120.149 C 307.224 113.681 311.924 107.462 312.424 107.96 C 312.624 108.126 311.824 110.282 310.724 112.769 Z  M 325.024 141.459 C 324.624 162.023 325.424 160.115 314.424 165.422 C 311.024 167.081 305.824 170.48 302.724 172.968 C 299.524 175.455 296.624 177.445 296.024 177.279 C 295.524 177.114 296.824 172.47 299.124 166.583 C 304.224 153.316 322.424 123.466 325.324 123.466 C 325.424 123.466 325.324 131.592 325.024 141.459 Z  M 528.324 154.643 C 532.924 156.218 537.824 159.12 537.824 160.281 C 537.824 161.691 541.024 164.095 543.024 164.095 C 544.024 164.095 544.824 164.427 544.824 164.925 C 544.824 166.334 541.324 165.837 539.624 164.095 C 538.624 163.183 536.724 162.271 535.324 161.94 C 532.624 161.359 530.724 162.105 532.324 163.1 C 532.924 163.432 534.224 164.593 535.324 165.588 L 537.324 167.578 L 534.324 166.5 C 532.624 165.92 530.824 164.925 530.124 164.261 C 529.224 163.349 527.124 163.183 520.624 163.598 C 511.724 164.095 510.124 163.764 509.824 161.193 C 509.224 156.799 509.724 156.135 514.624 154.809 C 520.824 153.067 523.724 153.067 528.324 154.643 Z  M 604.324 187.976 C 604.224 190.298 604.124 204.808 604.024 220.148 C 603.824 241.707 603.524 247.926 602.624 247.677 C 601.924 247.428 601.024 246.019 600.724 244.443 C 600.324 242.868 599.224 238.639 598.324 234.991 C 597.224 230.762 596.424 222.719 596.124 213.017 C 595.424 191.707 597.424 182.503 602.724 183.332 C 603.924 183.581 604.324 184.576 604.324 187.976 Z  M 313.524 186.566 C 314.424 187.313 314.124 188.639 312.524 191.79 C 310.424 195.936 310.324 197.097 310.224 231.923 C 310.124 251.657 309.824 267.992 309.524 268.241 C 309.324 268.489 308.524 266.334 307.824 263.431 C 307.224 260.529 306.024 255.388 305.224 251.989 C 301.724 237.395 300.524 219.899 301.924 205.14 C 302.924 194.278 303.924 190.961 306.924 187.81 C 309.124 185.488 311.724 185.074 313.524 186.566 Z  M 648.424 223.382 C 651.424 225.455 654.524 227.113 655.224 227.113 C 656.024 227.113 657.124 227.694 657.924 228.44 C 659.024 229.518 658.724 230.015 656.224 231.757 C 651.724 234.825 640.424 240.38 638.524 240.38 C 637.024 240.38 636.824 239.302 636.824 231.84 C 636.824 223.05 638.124 219.651 641.424 219.651 C 642.224 219.651 645.324 221.309 648.424 223.382 Z  M 646.324 242.785 C 645.224 244.36 630.824 251.325 623.124 253.979 C 611.524 258.042 606.624 259.866 592.824 265.256 C 562.224 277.03 558.724 278.523 558.224 279.683 C 557.324 281.508 554.824 281.342 554.824 279.435 C 554.824 277.859 558.024 273.962 560.824 272.138 C 561.624 271.557 565.924 269.982 570.324 268.489 C 574.724 267.08 579.924 265.339 581.824 264.675 C 588.524 262.353 589.324 262.022 593.324 261.027 C 601.124 259.12 616.524 253.647 630.324 247.926 C 643.724 242.37 647.624 241.126 646.324 242.785 Z  M 563.424 353.729 C 563.024 356.383 562.324 361.358 561.724 364.757 C 558.824 383.663 559.424 389.384 565.424 397.593 C 569.524 403.231 569.624 404.061 566.224 405.968 C 561.224 408.87 537.224 424.624 530.224 429.517 C 526.324 432.336 521.224 435.652 518.924 436.896 C 516.624 438.223 512.924 440.628 510.824 442.203 C 505.624 446.017 500.824 448.173 500.824 446.515 C 500.824 445.934 501.524 444.939 502.324 444.359 C 504.124 443.115 504.324 441.291 502.624 440.793 C 501.624 440.462 501.624 440.213 502.624 439.301 C 503.524 438.555 503.824 438.472 503.824 439.218 C 503.824 439.798 504.524 440.213 505.324 440.213 C 506.124 440.213 506.824 439.715 506.824 439.135 C 506.824 438.638 508.624 435.321 510.824 431.921 C 515.524 424.541 515.524 424.624 516.224 421.888 C 516.524 420.644 517.724 419.483 518.824 419.235 C 520.024 418.986 520.824 418.074 520.824 417.162 C 520.824 415.255 523.324 411.689 529.524 404.89 C 531.824 402.319 534.024 399.086 534.424 397.593 C 534.724 396.1 536.024 393.945 537.324 392.784 C 538.624 391.623 539.424 390.462 539.224 390.213 C 538.924 389.965 539.824 389.135 541.224 388.389 C 543.324 387.228 543.624 386.731 542.724 385.819 C 541.824 384.907 541.924 384.658 543.224 384.658 C 544.124 384.658 545.424 383.331 546.324 381.673 C 547.124 380.097 548.724 378.107 549.824 377.361 C 551.224 376.283 551.924 374.625 552.224 370.976 C 552.724 365.67 553.624 363.348 558.724 354.558 C 562.824 347.593 564.324 347.345 563.424 353.729 Z  M 374.124 352.9 C 376.124 357.046 383.124 369.235 383.824 369.733 C 384.724 370.396 386.724 373.381 387.824 375.454 C 388.524 376.698 389.424 377.195 390.424 376.863 C 391.424 376.532 391.824 376.781 391.524 377.361 C 390.924 378.771 393.424 382.917 396.624 385.653 C 398.024 386.897 398.924 388.14 398.624 388.389 C 398.124 388.887 399.224 393.696 402.424 404.144 C 403.224 406.88 404.124 410.445 404.324 412.021 C 404.624 413.596 405.724 417.908 406.724 421.556 C 407.824 425.205 408.924 429.517 409.324 431.092 C 409.624 432.667 410.524 435.652 411.324 437.725 C 412.124 439.798 413.224 443.696 413.924 446.432 C 415.324 452.734 417.624 460.03 418.824 462.186 C 419.224 463.098 419.924 465.171 420.224 466.747 C 420.524 468.322 421.124 470.644 421.424 471.888 C 422.024 474.126 421.924 474.209 417.924 474.209 C 415.324 474.209 413.924 473.878 414.324 473.38 C 415.224 472.136 409.824 470.561 408.424 471.722 C 407.924 472.136 406.724 472.551 405.924 472.468 C 404.924 472.468 405.224 472.136 406.624 471.639 C 409.224 470.81 408.924 469.649 405.824 468.986 C 404.524 468.737 403.524 468.986 403.124 469.732 C 402.624 470.976 400.824 470.561 400.824 469.151 C 400.824 468.654 401.324 468.571 401.824 468.82 C 402.424 469.068 402.824 468.82 402.824 468.156 C 402.824 467.493 401.524 466.498 399.824 466 C 398.224 465.586 396.824 464.84 396.824 464.342 C 396.824 463.928 395.224 462.767 393.324 461.772 C 391.124 460.694 388.924 458.455 387.624 456.299 C 385.124 451.739 383.824 450.992 383.824 453.977 C 383.824 456.133 383.724 456.216 382.424 454.724 C 381.524 453.646 381.324 452.568 381.824 451.739 C 382.824 450.246 382.024 446.846 380.724 446.846 C 380.224 446.846 379.824 447.924 379.824 449.334 C 379.824 452.485 378.324 452.568 376.424 449.5 C 375.224 447.593 374.924 441.374 374.924 413.928 C 374.824 395.603 374.624 380.18 374.324 379.517 C 373.924 378.605 370.824 353.066 370.824 350.661 C 370.824 348.754 372.724 350.081 374.124 352.9 Z  M 206.724 364.923 C 211.924 371.142 222.224 380.844 225.624 382.751 C 227.424 383.746 230.824 384.907 233.124 385.321 C 242.024 387.062 250.224 389.384 250.524 390.213 C 251.024 391.374 247.624 391.872 240.324 391.706 C 236.124 391.623 232.624 390.96 228.624 389.384 C 225.524 388.14 222.124 387.145 221.124 387.145 C 220.124 387.145 218.224 386.565 216.924 385.819 C 215.624 384.989 213.024 384.326 211.124 384.16 C 209.224 384.077 207.024 383.497 206.124 382.834 C 204.124 381.507 201.324 376.117 200.424 371.971 C 200.024 370.147 199.024 368.572 198.024 368.323 C 196.224 367.742 194.824 366.499 194.824 365.338 C 194.824 364.592 200.924 361.441 202.524 361.441 C 203.224 361.441 205.024 363.016 206.724 364.923 Z  M 193.724 370.147 C 195.224 371.391 195.124 371.557 193.424 372.718 C 192.324 373.381 190.024 373.878 188.224 373.878 C 184.724 373.878 180.324 376.946 175.624 382.668 C 172.624 386.316 171.424 386.233 172.224 382.336 C 174.124 373.63 181.024 367.577 188.224 368.323 C 190.324 368.572 192.824 369.401 193.724 370.147 Z  M 611.424 375.205 C 622.724 376.532 625.224 377.112 643.324 382.917 C 660.624 388.389 669.024 391.374 676.524 394.442 C 683.024 397.178 684.524 398.339 682.824 399.168 C 681.824 399.666 679.724 399.086 664.824 394.525 C 653.024 390.96 639.324 387.145 632.824 385.736 C 627.124 384.575 597.424 376.863 592.624 375.371 C 591.024 374.873 589.824 374.127 589.824 373.713 C 589.824 372.883 594.424 373.215 611.424 375.205 Z  M 348.124 386.648 C 345.824 389.882 324.624 403.149 306.324 412.85 C 294.024 419.318 290.124 421.391 269.824 431.921 C 255.124 439.55 244.424 444.276 243.424 443.53 C 242.324 442.618 244.224 436.647 246.124 435.404 C 246.724 434.989 254.724 431.341 263.824 427.278 C 272.924 423.298 287.724 416.333 296.824 411.772 C 305.924 407.212 315.624 402.402 318.324 401.076 C 321.124 399.749 328.724 395.686 335.324 392.12 C 347.524 385.487 349.524 384.575 348.124 386.648 Z  M 592.824 397.096 C 592.824 399.832 575.324 412.187 554.724 423.878 C 538.224 433.248 532.124 435.404 541.124 428.604 C 548.224 423.215 590.224 396.349 591.624 396.266 C 592.224 396.266 592.824 396.598 592.824 397.096 Z  M 691.824 402.236 C 693.824 403.812 694.024 404.558 693.424 408.538 C 692.724 413.265 687.924 426.697 684.824 432.336 C 683.824 434.16 682.624 436.399 682.224 437.311 C 681.524 438.803 681.424 438.638 681.024 436.565 C 680.824 435.238 681.124 433.331 681.724 432.419 C 683.824 428.936 687.024 410.86 686.524 405.304 C 686.124 400.329 686.324 399.832 687.924 400.163 C 688.824 400.412 690.624 401.324 691.824 402.236 Z  M 731.324 412.518 C 735.724 413.265 742.724 414.757 746.824 415.835 C 756.624 418.571 783.324 429.517 787.824 432.667 L 791.324 435.155 L 787.324 434.243 C 785.124 433.828 780.624 432.336 777.224 431.092 C 761.324 424.956 730.624 416.167 724.924 416.167 C 721.324 416.167 712.824 413.596 712.824 412.435 C 712.824 410.197 716.224 410.197 731.324 412.518 Z  M 153.324 427.775 C 153.624 428.19 155.624 428.604 157.624 428.604 C 161.424 428.604 171.424 431.589 174.224 433.497 C 175.124 434.16 175.824 435.404 175.824 436.316 C 175.824 437.642 176.124 437.808 177.024 437.062 C 179.424 435.072 181.124 435.901 180.424 438.72 C 178.824 445.934 168.824 446.432 167.624 439.384 C 167.324 437.642 166.524 437.228 161.824 436.399 C 158.824 435.901 155.524 435.155 154.424 434.823 C 152.724 434.243 152.624 434.492 153.024 436.979 C 153.324 438.472 153.124 440.379 152.524 441.125 C 151.024 443.115 152.424 445.437 154.824 444.939 C 157.524 444.359 158.924 446.681 158.624 451.158 C 158.524 453.148 158.824 455.387 159.224 456.133 C 159.824 457.294 159.624 457.626 158.024 457.626 C 155.524 457.626 152.824 454.724 152.824 452.07 C 152.824 450.578 152.324 450.246 150.624 450.412 C 148.324 450.578 148.324 450.412 148.024 440.379 C 147.924 434.326 148.224 429.599 148.824 428.604 C 149.924 426.863 152.324 426.449 153.324 427.775 Z  M 143.924 436.233 C 144.324 439.467 138.224 452.402 135.824 453.48 C 133.124 454.641 128.124 452.651 125.824 449.5 C 124.424 447.593 123.124 446.846 121.224 446.846 C 119.224 446.846 118.824 446.515 119.324 445.271 C 119.624 444.442 119.224 443.281 118.324 442.7 C 114.224 439.881 118.324 437.56 127.924 437.145 C 133.424 436.896 134.724 437.145 135.224 438.223 C 135.924 439.798 134.224 441.871 132.224 441.871 C 130.224 441.871 129.524 443.447 130.824 444.856 C 132.524 446.432 134.024 445.354 137.924 439.715 C 140.724 435.57 143.624 433.911 143.924 436.233 Z  M 676.024 458.206 C 672.424 467.908 671.124 470.893 670.224 470.893 C 669.924 470.893 664.724 467.078 658.724 462.518 C 648.924 454.972 646.024 451.821 648.724 451.821 C 649.924 451.821 658.724 457.626 663.324 461.44 C 667.424 464.84 669.324 464.674 670.324 460.777 C 670.724 459.284 672.124 456.05 673.524 453.563 C 679.024 443.198 680.424 445.851 676.024 458.206 Z  M 280.724 467.327 C 279.424 468.488 277.624 470.146 276.724 470.893 C 275.824 471.722 273.224 474.375 271.124 476.78 C 268.924 479.267 266.124 482.004 264.924 482.833 C 261.924 485.072 262.324 486.398 266.324 486.979 C 270.724 487.725 278.824 490.627 278.824 491.539 C 278.824 493.032 275.724 493.198 270.124 491.871 C 266.924 491.125 262.324 490.13 259.824 489.549 C 252.424 487.891 253.124 486.647 267.324 475.204 C 274.324 469.649 280.724 465.088 281.524 465.088 C 282.824 465.088 282.624 465.586 280.724 467.327 Z  M 858.024 471.639 C 861.524 472.966 866.324 475.453 868.724 477.194 C 873.024 480.428 873.024 480.594 873.524 486.647 L 874.024 492.866 L 869.624 487.891 C 864.524 482.252 855.924 475.287 851.124 472.966 C 842.924 468.986 848.324 467.908 858.024 471.639 Z  M 378.924 472.551 C 383.924 475.204 392.624 478.107 399.324 479.267 C 416.224 482.252 421.424 482.75 436.524 482.833 C 445.524 482.916 452.824 483.165 452.824 483.496 C 452.824 483.828 449.624 486.15 445.724 488.637 C 437.524 493.944 437.124 494.027 419.224 492.037 C 404.724 490.461 389.724 487.228 383.424 484.325 C 378.324 481.921 374.924 477.941 373.224 472.302 C 372.424 469.483 373.024 469.483 378.924 472.551 Z  M 812.524 478.853 C 812.824 479.599 812.124 481.092 810.924 482.335 C 796.024 497.841 787.324 508.703 782.824 517.244 C 775.824 530.511 774.724 532.252 772.724 533.164 C 770.724 533.993 770.624 533.91 771.324 531.423 C 771.924 529.101 775.324 521.473 777.824 516.912 C 779.324 514.01 781.524 509.533 782.924 506.547 C 787.124 497.012 800.624 479.848 805.124 478.355 C 808.624 477.194 811.824 477.443 812.524 478.853 Z  M 667.824 493.281 C 667.824 494.607 663.724 496.349 656.324 498.256 C 652.524 499.251 646.824 500.909 643.824 501.987 C 640.824 503.065 630.224 505.967 620.324 508.62 C 610.424 511.191 598.324 514.342 593.324 515.668 C 588.424 516.995 582.324 518.405 579.824 518.985 C 577.324 519.483 574.424 520.229 573.324 520.644 C 570.524 521.639 558.624 523.96 556.024 523.96 C 551.124 523.96 554.624 522.302 568.624 517.907 C 605.124 506.465 626.824 500.494 647.824 495.851 C 651.924 494.939 656.424 493.861 657.824 493.363 C 661.124 492.286 667.824 492.203 667.824 493.281 Z  M 487.324 499.499 C 485.724 500.66 483.024 502.07 481.324 502.733 C 479.724 503.397 474.624 505.967 470.024 508.372 C 465.524 510.776 456.824 515.337 450.824 518.571 C 436.524 526.033 426.124 531.589 417.024 536.564 C 410.624 540.046 405.824 541.539 405.824 540.129 C 405.824 537.227 412.124 531.838 423.624 524.955 C 429.524 521.473 454.224 509.035 455.324 509.035 C 455.524 509.035 460.824 507.045 467.024 504.557 C 473.324 502.07 479.624 499.748 481.124 499.499 C 482.624 499.168 484.124 498.587 484.424 498.173 C 484.724 497.758 486.124 497.426 487.624 497.426 L 490.324 497.509 L 487.324 499.499 Z  M 310.824 503.894 C 315.524 505.552 322.024 508.206 325.324 509.781 C 328.624 511.274 333.324 513.43 335.724 514.508 C 338.224 515.668 342.424 517.99 345.224 519.731 C 348.024 521.473 352.124 523.712 354.324 524.789 C 358.324 526.78 368.824 533.662 371.924 536.315 C 377.624 541.29 386.024 549.997 389.224 554.474 C 396.024 563.844 393.124 562.849 378.324 550.743 C 358.224 534.242 333.324 518.819 307.624 506.962 C 301.724 504.226 296.824 501.489 296.824 500.826 C 296.824 499.334 300.024 500.08 310.824 503.894 Z  M 400.324 502.567 C 404.224 503.397 410.424 504.392 414.124 504.64 C 417.824 504.889 421.124 505.47 421.424 505.801 C 422.224 506.879 414.824 513.181 412.724 513.181 C 409.824 513.181 397.424 510.196 394.924 508.952 C 392.724 507.791 389.824 503.314 389.824 500.992 C 389.824 500.08 390.324 499.914 391.624 500.329 C 392.524 500.66 396.524 501.655 400.324 502.567 Z  M 464.524 591.207 C 465.324 591.87 465.324 592.948 464.324 595.27 C 463.524 597.011 463.224 599.167 463.524 600.162 C 464.424 603.147 473.224 607.127 485.524 610.112 C 496.324 612.766 495.824 613.761 484.224 613.097 C 466.224 612.019 457.824 608.537 456.224 601.489 C 455.524 598.255 456.424 592.948 458.024 591.29 C 459.324 590.046 463.024 589.963 464.524 591.207 Z  M 376.124 644.192 C 376.124 644.855 374.924 648.006 373.524 651.24 C 371.224 656.712 369.524 661.107 364.924 674.457 C 362.924 680.095 356.924 697.757 354.724 704.307 C 354.124 706.131 353.424 708.122 353.224 708.619 C 353.024 709.199 352.124 709.697 351.224 709.697 C 349.824 709.697 349.624 709.117 350.224 705.551 C 351.324 698.918 360.224 670.394 364.624 659.531 C 369.924 646.596 372.424 642.367 374.624 642.699 C 375.524 642.865 376.224 643.528 376.124 644.192 Z  M 463.324 646.679 C 463.624 647.177 463.324 647.674 462.624 647.84 C 461.924 648.006 458.224 648.752 454.324 649.498 C 442.824 651.82 435.524 655.054 431.924 659.449 C 428.424 663.594 427.724 663.926 425.424 662.019 C 424.324 661.107 424.124 659.863 424.524 658.039 C 425.424 653.976 426.624 652.649 430.624 650.908 C 438.824 647.508 461.724 644.523 463.324 646.679 Z  M 508.024 662.268 C 508.524 662.682 508.824 664.507 508.624 666.248 C 508.324 669.233 508.024 669.482 504.824 669.896 L 501.324 670.311 L 500.624 677.359 C 500.324 681.256 500.024 687.309 499.924 690.875 C 499.824 696.928 499.724 697.342 497.324 698.088 C 494.524 699.001 489.124 698.669 487.824 697.591 C 487.224 697.093 487.224 691.289 487.824 683.578 C 488.324 676.364 488.424 670.062 488.224 669.73 C 487.924 669.399 486.624 669.067 485.424 669.067 C 481.924 669.067 480.524 667.077 481.324 663.594 L 481.924 660.609 L 494.524 661.024 C 501.524 661.356 507.524 661.853 508.024 662.268 Z  M 523.324 662.434 L 526.024 663.263 L 525.324 675.286 C 524.624 686.065 524.724 687.309 526.224 687.309 C 527.224 687.309 527.824 686.563 527.924 685.402 C 527.924 684.407 528.124 682.085 528.324 680.261 C 528.624 678.437 528.924 673.959 529.224 670.311 C 529.524 666.662 529.724 663.594 529.724 663.429 C 529.824 663.263 532.424 663.263 535.624 663.429 L 541.324 663.677 L 540.924 672.052 C 540.724 677.359 541.024 680.676 541.624 681.007 C 543.424 681.919 544.024 680.012 544.724 671.72 L 545.324 663.677 L 550.824 663.677 L 556.324 663.677 L 556.424 675.701 C 556.524 682.749 556.224 688.138 555.624 688.719 C 554.924 689.465 551.824 689.797 546.924 689.797 C 539.424 689.797 539.124 689.88 535.824 692.699 C 532.424 695.601 532.424 695.601 523.224 695.601 C 516.424 695.601 513.724 695.269 512.824 694.44 C 511.924 693.445 511.924 690.294 512.824 680.261 C 513.524 673.13 513.824 666.58 513.524 665.667 C 513.224 664.672 513.724 663.677 515.124 662.848 C 517.624 661.356 519.724 661.273 523.324 662.434 Z  M 571.524 664.589 C 573.624 665.087 573.724 665.17 573.224 680.51 C 572.724 697.84 572.624 698.088 565.724 698.088 C 560.424 698.088 559.424 696.679 560.124 689.962 C 560.524 686.894 561.024 680.095 561.424 674.871 C 561.824 669.316 562.524 665.087 563.224 664.755 C 564.524 664.009 568.524 663.926 571.524 664.589 Z  M 605.624 666.828 C 606.624 667.74 606.924 668.901 606.424 671.057 C 605.824 673.71 605.424 673.959 602.024 674.208 L 598.324 674.457 L 597.724 687.807 C 597.424 695.103 596.824 701.571 596.424 702.069 C 595.324 703.561 585.924 703.312 585.224 701.82 C 584.924 701.156 585.024 694.938 585.524 687.972 C 586.524 674.54 586.424 672.881 584.224 673.545 C 583.424 673.793 581.624 673.545 580.224 673.047 C 577.924 672.135 577.724 671.72 578.324 669.15 C 578.724 667.492 579.224 665.833 579.524 665.419 C 580.524 664.175 603.824 665.419 605.624 666.828 Z  M 637.624 667.657 C 638.524 668.238 638.824 670.725 638.724 676.032 C 638.624 680.178 638.324 684.075 638.124 684.573 C 637.524 685.817 629.124 686.065 627.024 684.904 C 626.124 684.49 625.924 682.997 626.324 680.012 C 626.924 675.866 626.224 674.457 624.124 675.535 C 623.424 675.949 622.824 679.183 622.724 683.992 C 622.524 690.626 622.824 691.952 624.124 692.118 C 625.224 692.284 625.824 691.621 626.024 690.045 C 626.324 687.972 626.724 687.724 630.724 687.475 C 635.724 687.143 637.224 688.055 637.424 691.455 C 637.524 693.445 636.724 694.523 633.024 697.01 C 628.524 699.996 628.524 700.078 619.924 699.913 C 614.624 699.83 611.024 699.332 610.224 698.752 C 609.424 697.923 609.424 694.938 610.224 687.06 C 611.324 676.861 611.424 676.364 614.824 672.798 C 620.924 666.165 620.424 666.414 628.724 666.662 C 632.924 666.745 636.924 667.243 637.624 667.657 Z  M 655.324 675.037 C 655.224 680.759 655.424 681.505 657.024 681.505 C 658.624 681.505 658.824 680.759 658.824 675.866 C 658.824 672.55 659.324 669.813 660.024 669.233 C 660.724 668.652 663.124 668.238 665.524 668.238 C 671.824 668.238 672.024 668.901 670.824 687.06 C 669.524 707.541 669.924 706.38 663.824 706.38 C 661.124 706.38 658.624 705.966 658.224 705.468 C 657.924 704.971 657.624 700.908 657.724 696.43 C 657.824 691.455 657.524 688.055 656.824 687.724 C 655.424 686.977 654.924 688.47 654.524 694.357 C 654.424 697.093 653.924 699.83 653.424 700.41 C 652.624 701.571 645.024 701.737 642.924 700.659 C 641.824 700.078 641.824 697.508 642.824 685.153 C 643.424 676.944 644.224 669.813 644.424 669.233 C 644.724 668.487 646.424 668.238 650.024 668.404 L 655.324 668.652 L 655.324 675.037 Z " fill="rgb(0,0,0)"/><path d=" M 367.124 150.165 C 362.224 153.067 353.424 164.676 354.424 166.832 C 354.724 167.495 354.324 170.397 353.524 173.299 C 352.724 176.202 351.724 181.674 351.324 185.323 L 350.624 192.039 L 354.424 195.107 C 358.324 198.258 359.824 198.755 359.824 197.014 C 359.824 196.516 360.424 196.931 361.124 198.092 C 362.924 201.077 364.624 200.994 370.524 197.76 C 373.324 196.268 377.124 194.775 379.024 194.526 C 386.824 193.449 394.624 191.458 403.324 188.142 C 404.424 187.81 406.024 187.23 406.824 186.981 C 407.624 186.732 406.224 186.649 403.724 186.898 C 401.124 187.147 395.624 188.473 391.424 189.8 C 383.324 192.371 377.924 193.034 373.924 191.956 C 371.024 191.127 368.524 192.702 370.824 194.029 C 371.924 194.609 371.324 194.692 368.824 194.278 C 366.924 194.029 365.224 193.697 365.124 193.614 C 364.424 193.117 367.024 187.644 368.624 186.152 C 369.624 185.157 371.524 183.001 372.724 181.26 C 375.024 178.109 376.824 177.279 376.824 179.352 C 376.824 181.425 385.524 187.313 388.724 187.313 C 392.124 187.313 395.424 184.162 396.424 179.933 C 396.824 178.523 397.524 177.114 397.924 176.865 C 398.424 176.616 398.824 175.538 398.824 174.377 C 398.824 173.299 399.024 172.387 399.324 172.387 C 401.124 172.387 411.324 178.026 413.124 179.933 C 415.024 182.172 415.624 182.337 419.824 181.84 C 424.024 181.425 424.524 181.508 425.724 183.498 C 427.524 186.235 428.424 186.235 430.224 183.332 C 434.124 177.031 423.024 155.804 415.824 155.804 C 414.324 155.804 413.824 155.223 413.824 153.814 C 413.824 152.653 413.224 151.492 412.624 151.077 C 410.724 150.082 399.924 149.17 384.324 148.673 C 370.824 148.258 370.224 148.341 367.124 150.165 Z  M 387.124 158.125 C 388.124 158.955 388.624 159.867 388.424 160.032 C 388.224 160.198 387.824 161.608 387.424 163.183 C 386.824 165.92 386.924 165.92 389.824 165.422 C 391.524 165.173 392.824 165.339 392.824 165.754 C 392.824 166.666 391.624 166.832 388.024 166.583 C 386.724 166.5 384.924 166.998 384.024 167.661 C 383.124 168.241 379.624 170.066 376.324 171.558 C 373.024 173.051 369.324 175.207 368.024 176.284 C 366.824 177.362 365.324 178.026 364.724 177.694 C 363.924 177.362 363.924 176.948 364.724 176.284 C 366.424 174.875 366.024 174.211 363.024 172.885 C 361.224 172.139 359.724 171.973 358.724 172.47 C 357.324 173.051 357.124 172.719 357.524 169.651 C 358.124 165.09 364.424 159.535 370.824 157.877 C 377.524 156.218 385.124 156.301 387.124 158.125 Z " fill="rgb(0,0,0)"/><path d=" M 455.524 282.834 C 447.324 283.498 440.724 285.819 436.424 289.716 C 435.224 290.712 432.724 292.453 430.724 293.531 C 428.824 294.692 425.024 297.013 422.324 298.837 L 417.524 302.154 L 422.424 302.735 C 431.124 303.647 450.124 303.398 456.924 302.237 C 460.624 301.574 466.924 299.915 471.024 298.423 C 480.124 295.355 481.924 295.023 485.824 295.935 C 488.324 296.516 488.824 296.433 488.824 295.189 C 488.824 293.614 486.224 292.038 475.024 286.483 C 466.924 282.42 464.824 282.088 455.524 282.834 Z " fill="rgb(0,0,0)"/><path d=" M 462.324 307.295 C 457.924 307.958 451.524 308.705 448.124 308.954 C 440.424 309.451 438.924 310.612 441.124 314.426 C 442.024 315.919 443.124 318.157 443.724 319.401 C 444.324 320.645 445.224 321.64 445.724 321.64 C 446.224 321.64 447.124 322.718 447.724 324.128 C 448.924 327.03 447.924 326.864 462.824 326.698 C 475.924 326.532 478.224 325.786 479.224 321.308 C 479.624 319.65 480.224 318.323 480.724 318.323 C 482.024 318.323 483.824 314.26 483.824 311.275 C 483.824 305.886 478.524 304.891 462.324 307.295 Z " fill="rgb(0,0,0)"/><g clip-path="url(#_clipPath_3QDXlKOKaJKNH3ZeSkPjy33aiYMJ1stW)"><text transform="matrix(1,0,0,1,89.724,790.054)" style="font-family:'Oi';font-weight:400;font-size:72px;font-style:normal;fill:#000000;stroke:none;">ArthasQuest</text></g><defs><clipPath id="_clipPath_3QDXlKOKaJKNH3ZeSkPjy33aiYMJ1stW"><rect x="0" y="0" width="823.632" height="307.06" transform="matrix(1,0,0,1,89.724,713.014)"/></clipPath></defs></g></svg>